# xmcd
#
# Track frame offsets: 
#        150
#        14600
#        34928
#        46835
#        65748
#        79693
#        91758
#        113005
#        125835
#        149313
#        162820
#        184135
#        194723
#        218543
#
# Disc length: 3122 seconds
#
# Revision: 0
# Processed by: cddbd v1.5.2PL0 Copyright (c) Steve Scherf et al.
# Submitted via: ExactAudioCopy v0.99pb5
#
DISCID=c40c300e
DTITLE=Frank Frost - Midnight Prowler
DYEAR=1989
DGENRE=Blues
TTITLE0=Gonna Put Her Down
TTITLE1=Ernest's Groove
TTITLE2=Undertaker
TTITLE3=Scratch My Back
TTITLE4=Midnight Prowler
TTITLE5=Just Like A Rabbit
TTITLE6=Quarter To Twelve
TTITLE7=My Back Scratcher
TTITLE8=Cummins Prison Farm
TTITLE9=Unseen Eye
TTITLE10=Mean Black Spider
TTITLE11=Who Told You
TTITLE12=Mustang Sally
TTITLE13=I Wanna Get Close
EXTD=
EXTT0=
EXTT1=
EXTT2=
EXTT3=
EXTT4=
EXTT5=
EXTT6=
EXTT7=
EXTT8=
EXTT9=
EXTT10=
EXTT11=
EXTT12=
EXTT13=
PLAYORDER=
